# xmcd
#
# Track frame offsets:
#	150
#	11460
#	24496
#	38873
#	49809
#	62255
#	75364
#	88584
#	102246
#	115449
#	124746
#	136769
#	148521
#	158853
#	170053
#	182642
#	194200
#	205653
#	219559
#	231846
#	242502
#	253660
#	266828
#	281047
#	294820
#
# Disc length: 4113 seconds
# Revision: 0
# Processed by: cddbd v1.5.2PL0 Copyright (c) Steve Scherf et al.
# Submitted via: dBpowerAMP V12.0
#
DISCID=64100f19
DTITLE=T-Bone Walker - The Imperial Blues Years
DYEAR=1950
DGENRE=Blues
TTITLE0=Travelin' Blues
TTITLE1=I Miss You Baby
TTITLE2=Cold, Cold Feeling
TTITLE3=Welcome Blues (Say Pretty Baby)
TTITLE4=Bye Bye Baby
TTITLE5=I Got The Blues
TTITLE6=You Don't Love Me
TTITLE7=Here In The Dark
TTITLE8=Lollie Lou
TTITLE9=Teenage Baby
TTITLE10=Tell Me What's The Reason
TTITLE11=Evil Hearted Woman
TTITLE12=I Walked Away
TTITLE13=Strollin' With Bone
TTITLE14=Blues Is A Woman
TTITLE15=The Hustle Is On
TTITLE16=Strugglin' Blues
TTITLE17=Street Walking Woma
TTITLE18=Baby Broke My Heart
TTITLE19=Pony Tail
TTITLE20=Everytime
TTITLE21=High Society
TTITLE22=Through With Women
TTITLE23=Get These Blues Off Me
TTITLE24=Long Distance Blues
EXTD=
EXTT0=
EXTT1=
EXTT2=
EXTT3=
EXTT4=
EXTT5=
EXTT6=
EXTT7=
EXTT8=
EXTT9=
EXTT10=
EXTT11=
EXTT12=
EXTT13=
EXTT14=
EXTT15=
EXTT16=
EXTT17=
EXTT18=
EXTT19=
EXTT20=
EXTT21=
EXTT22=
EXTT23=
EXTT24=
PLAYORDER=
